<svg width="23" height="23" viewBox="0 0 23 23" fill="none" xmlns="http://www.w3.org/2000/svg">
<path fill-rule="evenodd" clip-rule="evenodd" d="M9.71512 0.0837292C9.32314 0.141945 8.92196 0.229843 8.82362 0.279098C8.6506 0.365777 8.64443 0.390942 8.63503 1.04888L8.62523 1.72905L8.16603 1.88807C7.91353 1.97554 7.43137 2.17973 7.09472 2.3419L6.48253 2.63671L5.99495 2.16474L5.50737 1.69278L5.10962 1.99769C4.89092 2.16539 4.40169 2.53906 4.0226 2.82799C3.32291 3.36119 2.58419 4.14911 1.99944 4.98593L1.67747 5.44672L2.15627 5.95381L2.63508 6.46091L2.50629 6.71184C2.43552 6.84986 2.22986 7.34082 2.04929 7.8029L1.72101 8.64294L1.03449 8.66323L0.34796 8.68345L0.299819 9.04192C0.273348 9.23909 0.187558 9.86405 0.109174 10.4307C-0.0176249 11.3469 -0.0250998 11.5628 0.0413515 12.3812C0.0824292 12.8873 0.152584 13.4561 0.197227 13.6452L0.278354 13.9889L0.965155 14.0091L1.65189 14.0294L1.81078 14.5109C1.89815 14.7759 2.09503 15.2936 2.24823 15.6615L2.52686 16.3304L2.06122 16.821L1.59559 17.3116L1.99978 17.9444C2.64797 18.9593 4.61099 20.9055 5.16564 21.0831C5.29244 21.1237 5.40505 21.0526 5.77564 20.6976C6.0256 20.4581 6.25438 20.2622 6.28407 20.2622C6.31376 20.2622 6.62565 20.4087 6.97711 20.5878C7.32857 20.7669 7.83878 20.9813 8.11104 21.0641L8.60589 21.2149L8.62536 21.9352L8.64477 22.6554L9.4677 22.8219C10.8283 23.0973 12.9749 23.0474 14.1309 22.7135L14.3367 22.6541L14.371 21.9484L14.4053 21.2426L14.9539 21.0478C15.2556 20.9407 15.7632 20.7201 16.0818 20.5576C16.4004 20.3951 16.6945 20.2622 16.7354 20.2622C16.7763 20.2622 16.9929 20.4557 17.2169 20.6923C17.4409 20.9289 17.6594 21.1225 17.7025 21.1225C17.8626 21.1225 19.1456 20.1102 19.6727 19.5682C20.3497 18.8719 21.2796 17.672 21.3413 17.4152C21.3822 17.2446 21.3349 17.1736 20.9186 16.7811L20.4499 16.3391L20.7373 15.7017C20.8953 15.3511 21.0937 14.8384 21.1781 14.5624L21.3316 14.0606L22.0345 14.0401C22.5293 14.0257 22.7375 13.9939 22.7378 13.9326C22.7381 13.8847 22.7996 13.3131 22.8745 12.6625C23.0674 10.9884 23.0511 10.5664 22.733 9.01583L22.6574 8.6476H21.9539H21.2504L21.1653 8.3429C21.1184 8.17528 20.9284 7.70618 20.743 7.30031C20.5575 6.89452 20.4058 6.52429 20.4058 6.47762C20.4058 6.43101 20.6063 6.18159 20.8513 5.92342L21.2969 5.45403L21.1136 5.16883C20.3916 4.04515 18.6394 2.2844 17.7952 1.83416L17.5291 1.6922L17.0462 2.16847L16.5632 2.64481L15.8792 2.31286C15.503 2.13033 15.0097 1.92707 14.783 1.86119L14.371 1.74138V1.12158C14.371 0.734216 14.3384 0.45518 14.284 0.377463C14.1416 0.173921 13.232 0.0403541 11.765 0.00766125C10.8152 -0.0135604 10.2213 0.00852137 9.71512 0.0837292ZM11.2059 0.994182C11.1194 1.12237 10.95 1.36355 10.8293 1.53017C10.6335 1.80039 10.6046 1.90306 10.5613 2.48106C10.5178 3.06308 10.498 3.13226 10.3674 3.16044C10.2875 3.17772 9.95974 3.24418 9.63914 3.3082C8.46681 3.54236 7.076 4.24346 6.05509 5.11491C4.74197 6.23586 3.76091 7.84304 3.3515 9.54422C3.18157 10.2502 3.16203 10.4559 3.16415 11.5154C3.16641 12.6033 3.18349 12.7647 3.37667 13.5239C3.59502 14.3818 4.03405 15.3924 4.50038 16.1107C4.98638 16.8592 5.66928 17.5494 6.89064 18.5265C7.00358 18.6168 7.25368 18.9636 7.44638 19.2972L7.79675 19.9037H11.4944H15.192L15.3754 19.599C15.4764 19.4314 15.6606 19.1276 15.7848 18.9238C15.9257 18.6927 16.1553 18.453 16.3956 18.2863C16.8911 17.9425 17.7735 17.074 18.2009 16.5096C18.918 15.5624 19.5064 14.2284 19.7495 12.9985C19.9016 12.2286 19.891 10.7283 19.7277 9.90083C19.4155 8.31967 18.6682 6.89445 17.5288 5.70718C16.7341 4.87911 16.6189 4.80598 15.2625 4.26856C14.7533 4.06681 13.9201 3.73285 13.4109 3.52637L12.4851 3.15105L12.4138 2.46557C12.3397 1.75443 12.3052 1.6732 11.7879 0.994182L11.6103 0.761174H12.7163H13.8223V1.43926V2.11728L14.3047 2.26748C14.8132 2.42578 15.6741 2.79415 16.2688 3.10782L16.6236 3.29494L17.1009 2.85251C17.3634 2.60925 17.6096 2.41015 17.648 2.41015C17.7681 2.41015 18.9093 3.37151 19.4025 3.88821C19.6618 4.15965 20.0465 4.61979 20.2575 4.91073L20.6413 5.43962L20.1806 5.89588C19.9273 6.14682 19.72 6.38255 19.72 6.41969C19.72 6.45683 19.8122 6.64266 19.9249 6.83258C20.1339 7.18481 20.6057 8.33537 20.7557 8.8591L20.839 9.14947H21.5155C22.3204 9.14947 22.268 9.08229 22.3989 10.2805C22.4699 10.9304 22.4701 11.2809 22.4005 12.1067C22.2798 13.5363 22.3126 13.4512 21.8823 13.4512C21.6842 13.4512 21.3811 13.4714 21.2087 13.496C20.897 13.5408 20.8949 13.5429 20.8136 13.9083C20.7179 14.3387 20.363 15.2663 20.0278 15.9621L19.7912 16.4532L20.2812 16.9208L20.7713 17.3884L20.5879 17.665C20.3298 18.0544 19.3392 19.1898 18.9358 19.5585C18.7497 19.7286 18.412 20.0028 18.1855 20.1677L17.7736 20.4676L17.5296 20.2637C17.3953 20.1515 17.1815 19.9465 17.0545 19.8081L16.8234 19.5566L16.0258 19.9709C15.1919 20.4039 14.8701 20.5384 14.2191 20.7255L13.8273 20.8382L13.8077 21.536L13.7881 22.2338L13.308 22.3187C12.1513 22.5233 10.9696 22.4964 9.38198 22.229L9.1591 22.1914V21.5156V20.8397L8.76478 20.7251C8.16967 20.552 7.55014 20.2879 6.82754 19.8991L6.1762 19.5486L5.72859 20.013C5.48247 20.2683 5.25308 20.4772 5.21893 20.4772C4.94243 20.4772 3.02048 18.5572 2.54065 17.8017L2.27745 17.3873L2.7437 16.8961L3.21003 16.4048L2.93538 15.878C2.7843 15.5882 2.52631 14.9436 2.36207 14.4454L2.06342 13.5398L1.65806 13.4955C1.43505 13.4711 1.12048 13.4512 0.958983 13.4512H0.665404L0.628098 13.0748C0.523998 12.0244 0.521666 11.4048 0.618291 10.4758C0.675691 9.92377 0.72294 9.39954 0.723352 9.31078C0.724106 9.15398 0.743788 9.14947 1.4323 9.14947H2.1405L2.33389 8.55798C2.44025 8.23271 2.69981 7.60294 2.91076 7.15857L3.29424 6.35072L2.82613 5.88477L2.35803 5.41883L2.48956 5.20159C2.95211 4.4379 5.07073 2.41015 5.40615 2.41015C5.45031 2.41015 5.6784 2.60896 5.91293 2.85201L6.33934 3.29386L7.21775 2.87287C7.70088 2.6413 8.3276 2.38162 8.61048 2.2958L9.12481 2.13972L9.14442 1.45045L9.16404 0.761174H10.2635H11.3629L11.2059 0.994182ZM11.6941 1.68969C11.7899 1.83036 11.8492 2.05254 11.8714 2.35287C11.9614 3.57498 12.2508 8.88391 12.2322 8.96951C12.2197 9.02673 12.0821 8.90699 11.9022 8.68266C11.7325 8.47095 11.5574 8.2958 11.5131 8.29343C11.4689 8.29106 11.2871 8.46736 11.1091 8.68517C10.9311 8.90305 10.7735 9.06881 10.7589 9.05361C10.7444 9.03834 10.7799 8.22295 10.8378 7.24152C10.8957 6.26017 10.9881 4.65707 11.0431 3.67922C11.1364 2.01899 11.1534 1.88743 11.2997 1.69364C11.3859 1.5795 11.4775 1.48429 11.5032 1.48206C11.5289 1.47991 11.6148 1.57333 11.6941 1.68969ZM10.4228 5.63642C10.3069 8.05655 10.1928 9.88506 10.155 9.92456C10.1388 9.94155 10.0084 9.85917 9.86517 9.74152C9.72198 9.62387 9.50274 9.47295 9.378 9.40621C9.067 9.23987 8.1672 9.00608 7.83782 9.00608C7.60651 9.00608 7.57449 9.02429 7.61769 9.13154C7.82164 9.63792 8.08724 10.509 8.04966 10.5483C8.02449 10.5747 7.8093 10.4581 7.57154 10.2893C7.27021 10.0753 6.9828 9.9432 6.62332 9.85322C6.08403 9.71829 5.7024 9.68517 5.74217 9.7768C5.755 9.80633 5.86602 10.0322 5.98891 10.2787C6.36287 11.0289 6.4252 11.4711 6.40456 13.2267C6.38728 14.6915 6.39489 14.7999 6.54062 15.1824C6.62545 15.4051 6.82137 15.7374 6.97588 15.921C7.32322 16.3335 8.12036 16.8295 8.83713 17.0791C9.46249 17.2968 9.47401 17.2538 8.6303 17.8496C7.81087 18.4281 7.70568 18.4341 6.99858 17.9421C5.48837 16.8914 4.2941 15.1851 3.87777 13.4833C3.4362 11.6784 3.60675 9.77823 4.35362 8.18159C5.27893 6.20331 6.93686 4.72826 9.06398 3.99074C9.70964 3.76684 10.3955 3.62273 10.4708 3.69514C10.4944 3.71787 10.4728 4.59147 10.4228 5.63642ZM13.0899 3.91022C13.3608 4.02544 14.1069 4.33337 14.7481 4.59448C16.3548 5.24862 16.4022 5.27443 16.9326 5.78447C18.4811 7.27314 19.3771 9.35738 19.3771 11.4702C19.3771 13.4096 18.6686 15.286 17.4095 16.6814C16.5418 17.6431 15.5416 18.374 15.1933 18.3012C14.7219 18.2026 13.6166 17.5171 13.6166 17.3233C13.6166 17.29 13.8249 17.1915 14.0795 17.1046C15.2313 16.7111 16.007 16.1112 16.3747 15.3296L16.5997 14.8513L16.6061 13.0579C16.613 11.0905 16.6423 10.8989 17.038 10.2265C17.3081 9.76769 17.3083 9.69851 17.0396 9.76023C16.9233 9.7869 16.607 9.84899 16.3367 9.8981C15.8212 9.99174 15.5161 10.1263 15.1383 10.4266L14.9113 10.607L14.9492 10.4339C14.9701 10.3387 15.0199 10.0994 15.06 9.90226C15.1001 9.7051 15.1942 9.43488 15.2691 9.30175C15.3439 9.16861 15.3904 9.04415 15.3722 9.02522C15.318 8.96851 13.8047 9.30218 13.5823 9.4199C13.4692 9.47984 13.2693 9.62093 13.1381 9.73349C13.0069 9.84605 12.8758 9.93811 12.8466 9.93811C12.8175 9.93811 12.7932 9.7365 12.7927 9.49002C12.792 9.2436 12.7308 8.00952 12.6565 6.74769C12.5146 4.33581 12.4941 3.70066 12.5585 3.70066C12.5799 3.70066 12.8191 3.79494 13.0899 3.91022ZM11.9473 9.49002C13.3824 11.5168 13.8121 13.2858 13.2746 14.9539C12.9983 15.8116 12.6197 16.4148 11.8896 17.1609L11.5217 17.5368L11.3176 17.3822C11.0431 17.1743 10.4587 16.4367 10.126 15.8782C9.45446 14.7505 9.31854 13.3032 9.75675 11.9456C10.047 11.0466 11.2688 8.93438 11.4987 8.93438C11.5291 8.93438 11.731 9.18445 11.9473 9.49002ZM14.6093 9.94148C14.4549 10.5479 14.4826 11.302 14.6909 12.1606C14.8302 12.7354 14.8748 13.0999 14.8793 13.7021C14.8849 14.4356 14.8712 14.5208 14.684 14.9209C14.4742 15.369 14.0066 15.8924 13.3423 16.4227C12.7757 16.8751 12.7609 16.8723 13.0866 16.375C14.1434 14.7612 14.2222 13.0102 13.3287 10.9997L13.0494 10.3711L13.213 10.225C13.5237 9.94757 13.979 9.69786 14.3287 9.61333C14.5217 9.56666 14.6861 9.53339 14.6942 9.53949C14.7022 9.54551 14.664 9.72639 14.6093 9.94148ZM9.14436 9.986C9.54848 10.2095 9.8889 10.3998 9.90076 10.4089C9.9127 10.418 9.82807 10.6209 9.71272 10.8597C9.2034 11.9146 8.95357 13.2258 9.08888 14.1339C9.23323 15.1031 9.41469 15.572 10.045 16.6042C10.134 16.75 10.076 16.7253 9.72171 16.4661C8.70039 15.7189 8.16487 14.9163 8.08793 14.0176C8.05755 13.6629 8.0978 13.3072 8.26533 12.4502C8.49184 11.2916 8.54204 10.4072 8.40791 9.93861C8.32719 9.65671 8.31965 9.57964 8.37286 9.57964C8.39303 9.57964 8.74023 9.76246 9.14436 9.986ZM6.92842 10.4393C7.14657 10.5178 7.47546 10.7018 7.65918 10.8483C8.06296 11.1703 8.06516 11.1939 7.81362 12.4897C7.44056 14.4111 7.73606 15.3721 9.01502 16.3974C9.25641 16.5908 9.42614 16.748 9.39219 16.7468C9.2032 16.7394 7.95338 16.1768 7.68695 15.979C7.34222 15.7232 6.99912 15.2136 6.89221 14.7985C6.85251 14.6444 6.83139 13.8374 6.84236 12.8975C6.86032 11.3689 6.85223 11.2415 6.71611 10.906C6.63615 10.7088 6.54802 10.4911 6.52032 10.422C6.45798 10.2668 6.4477 10.2664 6.92842 10.4393ZM16.4613 10.422C16.1717 11.1461 16.1459 11.3771 16.1673 13.0568L16.1883 14.7058L16.0092 15.1049C15.7896 15.5945 15.4559 15.9426 14.9203 16.2411C14.5337 16.4565 13.6543 16.8208 13.521 16.8208C13.4869 16.8208 13.6591 16.6625 13.9036 16.4689C15.3144 15.3524 15.6104 14.315 15.1264 12.1844C14.9218 11.2837 14.9314 11.2199 15.3232 10.877C15.857 10.4098 16.5822 10.1199 16.4613 10.422ZM10.5306 17.7188C10.7004 17.8082 10.9865 18.017 11.1665 18.183C11.5295 18.5178 11.4771 18.526 11.9965 18.0515C12.1426 17.918 12.4313 17.7305 12.6381 17.6349C13.0485 17.4451 13.0277 17.4397 13.4447 17.8464C13.7894 18.1826 14.0943 18.3506 15.1049 18.7608L15.2561 18.8222L15.082 19.1479L14.9079 19.4735H11.5225H8.13703L7.92444 19.1505L7.71192 18.8275L7.86971 18.7645C8.63202 18.4597 8.96311 18.2739 9.41304 17.8985C9.98127 17.4242 9.97345 17.4255 10.5306 17.7188Z" fill="white"/>
</svg>
