<svg width="1607" height="802" viewBox="0 0 1607 802" fill="none" xmlns="http://www.w3.org/2000/svg">
<path fill-rule="evenodd" clip-rule="evenodd" d="M100.25 0C44.8835 0 0 44.8835 0 100.25C55.3665 100.25 100.25 55.3665 100.25 0ZM100.25 200.5C100.25 145.133 55.3665 100.25 0 100.25C0 155.617 44.8835 200.5 100.25 200.5ZM200.5 100.25C200.5 44.8835 155.617 0 100.25 0C100.25 55.3665 145.133 100.25 200.5 100.25ZM200.5 100.25C145.133 100.25 100.25 145.133 100.25 200.5C44.8835 200.5 0 245.383 0 300.75C0 356.117 44.8835 401 100.25 401C44.8835 401 0 445.883 0 501.25C0 556.617 44.8835 601.5 100.25 601.5C44.8835 601.5 0 646.383 0 701.75C0 757.117 44.8835 802 100.25 802C155.617 802 200.5 757.117 200.5 701.75C200.5 646.383 155.617 601.5 100.25 601.5C155.617 601.5 200.5 556.617 200.5 501.25C200.5 445.883 155.617 401 100.25 401C155.617 401 200.5 356.117 200.5 300.75C200.5 245.383 155.617 200.5 100.25 200.5C155.617 200.5 200.5 155.617 200.5 100.25ZM200.5 701.75C145.133 701.75 100.25 746.633 100.25 802C100.25 746.633 55.3665 701.75 0 701.75C55.3665 701.75 100.25 656.867 100.25 601.5C100.25 656.867 145.133 701.75 200.5 701.75ZM200.5 501.25C145.133 501.25 100.25 456.367 100.25 401C100.25 345.633 145.133 300.75 200.5 300.75C145.133 300.75 100.25 255.867 100.25 200.5C100.25 255.867 55.3665 300.75 0 300.75C55.3665 300.75 100.25 345.633 100.25 401C100.25 456.367 55.3665 501.25 0 501.25C55.3665 501.25 100.25 546.133 100.25 601.5C100.25 546.133 145.133 501.25 200.5 501.25ZM401.5 100.25C401.5 44.8835 356.617 0 301.25 0C301.25 55.3665 346.133 100.25 401.5 100.25ZM501.75 0C446.383 0 401.5 44.8835 401.5 100.25C346.133 100.25 301.25 145.133 301.25 200.5C301.25 145.133 256.367 100.25 201 100.25C256.367 100.25 301.25 55.3665 301.25 0C245.883 0 201 44.8835 201 100.25C201 155.617 245.883 200.5 301.25 200.5C245.883 200.5 201 245.383 201 300.75C201 356.117 245.883 401 301.25 401C245.883 401 201 445.883 201 501.25C201 556.617 245.883 601.5 301.25 601.5C245.883 601.5 201 646.383 201 701.75C201 757.117 245.883 802 301.25 802C356.617 802 401.5 757.117 401.5 701.75C401.5 757.117 446.383 802 501.75 802C557.117 802 602 757.117 602 701.75C602 757.117 646.883 802 702.25 802C757.617 802 802.5 757.117 802.5 701.75C802.5 757.117 847.383 802 902.75 802C958.117 802 1003 757.117 1003 701.75C1003 757.117 1047.88 802 1103.25 802C1158.62 802 1203.5 757.117 1203.5 701.75C1203.5 646.383 1158.62 601.5 1103.25 601.5C1158.62 601.5 1203.5 556.617 1203.5 501.25C1203.5 445.883 1158.62 401 1103.25 401C1158.62 401 1203.5 356.117 1203.5 300.75C1203.5 245.383 1158.62 200.5 1103.25 200.5C1158.62 200.5 1203.5 155.617 1203.5 100.25C1203.5 44.8835 1158.62 0 1103.25 0C1047.88 0 1003 44.8835 1003 100.25C1003 44.8835 958.117 0 902.75 0C847.383 0 802.5 44.8835 802.5 100.25C802.5 44.8835 757.617 0 702.25 0C646.883 0 602 44.8835 602 100.25C602 44.8835 557.117 0 501.75 0ZM702.25 200.5C702.25 145.133 657.367 100.25 602 100.25C657.367 100.25 702.25 55.3665 702.25 0C702.25 55.3665 747.133 100.25 802.5 100.25C747.133 100.25 702.25 145.133 702.25 200.5ZM802.5 300.75C802.5 245.383 757.617 200.5 702.25 200.5C757.617 200.5 802.5 155.617 802.5 100.25C802.5 155.617 847.383 200.5 902.75 200.5C847.383 200.5 802.5 245.383 802.5 300.75ZM902.75 401C902.75 345.633 857.867 300.75 802.5 300.75C857.867 300.75 902.75 255.867 902.75 200.5C902.75 255.867 947.633 300.75 1003 300.75C947.633 300.75 902.75 345.633 902.75 401ZM1103.25 401C1047.88 401 1003 445.883 1003 501.25C1058.37 501.25 1103.25 456.367 1103.25 401ZM1003 701.75C1003 646.383 958.117 601.5 902.75 601.5C902.75 656.867 947.633 701.75 1003 701.75ZM802.5 501.25C802.5 556.617 847.383 601.5 902.75 601.5C847.383 601.5 802.5 646.383 802.5 701.75C802.5 646.383 757.617 601.5 702.25 601.5C757.617 601.5 802.5 556.617 802.5 501.25ZM702.25 401C702.25 456.367 747.133 501.25 802.5 501.25C747.133 501.25 702.25 546.133 702.25 601.5C702.25 546.133 657.367 501.25 602 501.25C657.367 501.25 702.25 456.367 702.25 401ZM602 300.75C602 356.117 646.883 401 702.25 401C646.883 401 602 445.883 602 501.25C602 445.883 557.117 401 501.75 401C557.117 401 602 356.117 602 300.75ZM501.75 200.5C501.75 255.867 546.633 300.75 602 300.75C546.633 300.75 501.75 345.633 501.75 401C501.75 345.633 456.867 300.75 401.5 300.75C456.867 300.75 501.75 255.867 501.75 200.5ZM401.5 100.25C401.5 155.617 446.383 200.5 501.75 200.5C501.75 145.133 456.867 100.25 401.5 100.25ZM501.75 200.5C446.383 200.5 401.5 245.383 401.5 300.75C401.5 245.383 356.617 200.5 301.25 200.5C356.617 200.5 401.5 155.617 401.5 100.25C456.867 100.25 501.75 55.3665 501.75 0C501.75 55.3665 546.633 100.25 602 100.25C546.633 100.25 501.75 145.133 501.75 200.5ZM501.75 200.5C557.117 200.5 602 245.383 602 300.75C657.367 300.75 702.25 345.633 702.25 401C757.617 401 802.5 445.883 802.5 501.25C857.867 501.25 902.75 546.133 902.75 601.5C902.75 656.867 857.867 701.75 802.5 701.75C747.133 701.75 702.25 656.867 702.25 601.5C646.883 601.5 602 556.617 602 501.25C546.633 501.25 501.75 456.367 501.75 401C446.383 401 401.5 356.117 401.5 300.75C346.133 300.75 301.25 255.867 301.25 200.5C301.25 255.867 256.367 300.75 201 300.75C256.367 300.75 301.25 345.633 301.25 401C301.25 456.367 256.367 501.25 201 501.25C256.367 501.25 301.25 546.133 301.25 601.5C301.25 656.867 256.367 701.75 201 701.75C256.367 701.75 301.25 746.633 301.25 802C301.25 746.633 346.133 701.75 401.5 701.75C456.867 701.75 501.75 746.633 501.75 802C501.75 746.633 546.633 701.75 602 701.75C657.367 701.75 702.25 746.633 702.25 802C702.25 746.633 747.133 701.75 802.5 701.75C857.867 701.75 902.75 746.633 902.75 802C902.75 746.633 947.633 701.75 1003 701.75C1058.37 701.75 1103.25 746.633 1103.25 802C1103.25 746.633 1148.13 701.75 1203.5 701.75C1148.13 701.75 1103.25 656.867 1103.25 601.5C1103.25 546.133 1148.13 501.25 1203.5 501.25C1148.13 501.25 1103.25 456.367 1103.25 401C1103.25 345.633 1148.13 300.75 1203.5 300.75C1148.13 300.75 1103.25 255.867 1103.25 200.5C1103.25 145.133 1148.13 100.25 1203.5 100.25C1148.13 100.25 1103.25 55.3665 1103.25 0C1103.25 55.3665 1058.37 100.25 1003 100.25C947.633 100.25 902.75 55.3665 902.75 0C902.75 55.3665 857.867 100.25 802.5 100.25C857.867 100.25 902.75 145.133 902.75 200.5C958.117 200.5 1003 245.383 1003 300.75C1003 356.117 958.117 401 902.75 401C847.383 401 802.5 356.117 802.5 300.75C747.133 300.75 702.25 255.867 702.25 200.5C646.883 200.5 602 155.617 602 100.25C602 155.617 557.117 200.5 501.75 200.5ZM501.75 401C446.383 401 401.5 445.883 401.5 501.25C456.867 501.25 501.75 456.367 501.75 401ZM401.5 701.75C456.867 701.75 501.75 656.867 501.75 601.5C446.383 601.5 401.5 646.383 401.5 701.75ZM501.75 601.5C501.75 546.133 456.867 501.25 401.5 501.25C401.5 445.883 356.617 401 301.25 401C356.617 401 401.5 356.117 401.5 300.75C346.133 300.75 301.25 345.633 301.25 401C301.25 456.367 346.133 501.25 401.5 501.25C346.133 501.25 301.25 546.133 301.25 601.5C301.25 656.867 346.133 701.75 401.5 701.75C401.5 646.383 356.617 601.5 301.25 601.5C356.617 601.5 401.5 556.617 401.5 501.25C401.5 556.617 446.383 601.5 501.75 601.5ZM702.25 200.5C646.883 200.5 602 245.383 602 300.75C657.367 300.75 702.25 255.867 702.25 200.5ZM501.75 601.5C501.75 546.133 546.633 501.25 602 501.25C602 556.617 557.117 601.5 501.75 601.5ZM602 701.75C602 646.383 557.117 601.5 501.75 601.5C501.75 656.867 546.633 701.75 602 701.75ZM802.5 300.75C747.133 300.75 702.25 345.633 702.25 401C757.617 401 802.5 356.117 802.5 300.75ZM902.75 401C847.383 401 802.5 445.883 802.5 501.25C857.867 501.25 902.75 456.367 902.75 401ZM902.75 601.5C958.117 601.5 1003 556.617 1003 501.25C1003 556.617 1047.88 601.5 1103.25 601.5C1047.88 601.5 1003 646.383 1003 701.75C1058.37 701.75 1103.25 656.867 1103.25 601.5C1103.25 546.133 1058.37 501.25 1003 501.25C1003 445.883 958.117 401 902.75 401C902.75 456.367 947.633 501.25 1003 501.25C947.633 501.25 902.75 546.133 902.75 601.5ZM1003 300.75C1058.37 300.75 1103.25 345.633 1103.25 401C1047.88 401 1003 356.117 1003 300.75ZM902.75 200.5C958.117 200.5 1003 155.617 1003 100.25C1003 155.617 1047.88 200.5 1103.25 200.5C1047.88 200.5 1003 245.383 1003 300.75C1058.37 300.75 1103.25 255.867 1103.25 200.5C1103.25 145.133 1058.37 100.25 1003 100.25C947.633 100.25 902.75 145.133 902.75 200.5ZM602 701.75C657.367 701.75 702.25 656.867 702.25 601.5C646.883 601.5 602 646.383 602 701.75ZM1404.5 100.25C1404.5 44.8835 1359.62 0 1304.25 0C1304.25 55.3665 1349.13 100.25 1404.5 100.25ZM1304.25 200.5C1304.25 145.133 1349.13 100.25 1404.5 100.25C1404.5 155.617 1359.62 200.5 1304.25 200.5ZM1404.5 300.75C1404.5 245.383 1359.62 200.5 1304.25 200.5C1304.25 145.133 1259.37 100.25 1204 100.25C1259.37 100.25 1304.25 55.3665 1304.25 0C1248.88 0 1204 44.8835 1204 100.25C1204 155.617 1248.88 200.5 1304.25 200.5C1248.88 200.5 1204 245.383 1204 300.75C1204 356.117 1248.88 401 1304.25 401C1248.88 401 1204 445.883 1204 501.25C1204 556.617 1248.88 601.5 1304.25 601.5C1248.88 601.5 1204 646.383 1204 701.75C1204 757.117 1248.88 802 1304.25 802C1359.62 802 1404.5 757.117 1404.5 701.75C1404.5 646.383 1359.62 601.5 1304.25 601.5C1359.62 601.5 1404.5 556.617 1404.5 501.25C1404.5 445.883 1359.62 401 1304.25 401C1359.62 401 1404.5 356.117 1404.5 300.75ZM1404.5 701.75C1349.13 701.75 1304.25 656.867 1304.25 601.5C1304.25 546.133 1349.13 501.25 1404.5 501.25C1349.13 501.25 1304.25 456.367 1304.25 401C1304.25 345.633 1349.13 300.75 1404.5 300.75C1349.13 300.75 1304.25 255.867 1304.25 200.5C1304.25 255.867 1259.37 300.75 1204 300.75C1259.37 300.75 1304.25 345.633 1304.25 401C1304.25 456.367 1259.37 501.25 1204 501.25C1259.37 501.25 1304.25 546.133 1304.25 601.5C1304.25 656.867 1259.37 701.75 1204 701.75C1259.37 701.75 1304.25 746.633 1304.25 802C1304.25 746.633 1349.13 701.75 1404.5 701.75ZM1506 0C1561.37 0 1606.25 44.8835 1606.25 100.25C1550.88 100.25 1506 55.3665 1506 0ZM1606.25 100.25C1606.25 155.617 1561.37 200.5 1506 200.5C1506 145.133 1550.88 100.25 1606.25 100.25ZM1506 200.5C1561.37 200.5 1606.25 245.383 1606.25 300.75C1550.88 300.75 1506 255.867 1506 200.5ZM1606.25 300.75C1606.25 356.117 1561.37 401 1506 401C1506 345.633 1550.88 300.75 1606.25 300.75ZM1606.25 501.25C1550.88 501.25 1506 456.367 1506 401C1561.37 401 1606.25 445.883 1606.25 501.25ZM1606.25 501.25C1606.25 556.617 1561.37 601.5 1506 601.5C1506 546.133 1550.88 501.25 1606.25 501.25ZM1506 601.5C1561.37 601.5 1606.25 646.383 1606.25 701.75C1550.88 701.75 1506 656.867 1506 601.5ZM1606.25 701.75C1606.25 757.117 1561.37 802 1506 802C1506 746.633 1550.88 701.75 1606.25 701.75ZM1505.25 0C1449.88 0 1405 44.8835 1405 100.25C1460.37 100.25 1505.25 55.3665 1505.25 0ZM1405 100.25C1405 155.617 1449.88 200.5 1505.25 200.5C1505.25 145.133 1460.37 100.25 1405 100.25ZM1405 300.75C1405 245.383 1449.88 200.5 1505.25 200.5C1505.25 255.867 1460.37 300.75 1405 300.75ZM1505.25 401C1449.88 401 1405 356.117 1405 300.75C1460.37 300.75 1505.25 345.633 1505.25 401ZM1405 501.25C1460.37 501.25 1505.25 456.367 1505.25 401C1449.88 401 1405 445.883 1405 501.25ZM1405 501.25C1405 556.617 1449.88 601.5 1505.25 601.5C1505.25 546.133 1460.37 501.25 1405 501.25ZM1405 701.75C1405 646.383 1449.88 601.5 1505.25 601.5C1505.25 656.867 1460.37 701.75 1405 701.75ZM1505.25 802C1449.88 802 1405 757.117 1405 701.75C1460.37 701.75 1505.25 746.633 1505.25 802Z" fill="url(#paint0_linear_837_14361)"/>
<defs>
<linearGradient id="paint0_linear_837_14361" x1="1010.5" y1="401" x2="390.5" y2="401" gradientUnits="userSpaceOnUse">
<stop stop-opacity="0.025"/>
<stop offset="1" stop-opacity="0.015"/>
</linearGradient>
</defs>
</svg>
